<svg xmlns="http://www.w3.org/2000/svg" viewBox="0 0 592.838 592.838">
  <path d="M534.176,97.078c-10.15,0-20.195,2.702-29.049,7.813L260.601,246.069c-9.16,5.289-16.693,12.941-21.787,22.129c-4.765,8.596-7.283,18.355-7.283,28.221c0,9.866,2.519,19.625,7.283,28.221c5.093,9.189,12.627,16.842,21.788,22.131l244.527,141.178c8.85,5.109,18.895,7.811,29.047,7.811c32.07,0,58.162-26.092,58.162-58.162V155.241C592.338,123.17,566.246,97.078,534.176,97.078z M549.498,437.598c0,8.932-7.33,15.322-15.322,15.322c-2.547,0-5.162-0.648-7.627-2.072L282.021,309.67c-10.2-5.889-10.2-20.612,0-26.501l244.528-141.178c2.465-1.424,5.078-2.073,7.627-2.073c7.99,0,15.322,6.392,15.322,15.323V437.598L549.498,437.598z"/>
  <path d="M136.109,98.098H58.64c-32.059,0-58.14,26.082-58.14,58.14V432.74c0,32.059,26.082,58.141,58.14,58.141h77.469c32.059,0,58.14-26.082,58.14-58.141V156.238C194.249,124.179,168.167,98.098,136.109,98.098z M151.409,432.74c0,8.449-6.85,15.299-15.3,15.299H58.64c-8.45,0-15.3-6.85-15.3-15.299V156.238c0-8.45,6.85-15.3,15.3-15.3h77.469c8.45,0,15.3,6.85,15.3,15.3V432.74z"/>
</svg>
